<svg width="32" height="32" viewBox="0 0 32 32" fill="none" xmlns="http://www.w3.org/2000/svg">
<path d="M25.3334 13.7067V23.2401C25.2934 27.0401 24.2534 28.0001 20.2934 28.0001H7.70679C3.68012 28.0001 2.66675 27.0001 2.66675 23.0267V13.7067C2.66675 10.1067 3.50675 8.94673 6.66675 8.76007C6.98675 8.74673 7.33345 8.7334 7.70679 8.7334H20.2934C24.32 8.7334 25.3334 9.7334 25.3334 13.7067Z" fill="#F1404B"/>
<path d="M29.3334 8.97333V18.2933C29.3334 21.8933 28.4934 23.0533 25.3334 23.24V13.7067C25.3334 9.73333 24.32 8.73333 20.2934 8.73333H7.70679C7.33345 8.73333 6.98675 8.74667 6.66675 8.76C6.70675 4.96 7.74679 4 11.7068 4H24.2934C28.32 4 29.3334 5 29.3334 8.97333Z" fill="#FA998C"/>
<path d="M9.27995 24.7466H6.98657C6.43991 24.7466 5.98657 24.2932 5.98657 23.7466C5.98657 23.1999 6.43991 22.7466 6.98657 22.7466H9.27995C9.82661 22.7466 10.2799 23.1999 10.2799 23.7466C10.2799 24.2932 9.83995 24.7466 9.27995 24.7466Z" fill="white"/>
<path d="M16.7334 24.7466H12.1467C11.6001 24.7466 11.1467 24.2932 11.1467 23.7466C11.1467 23.1999 11.6001 22.7466 12.1467 22.7466H16.7334C17.2801 22.7466 17.7334 23.1999 17.7334 23.7466C17.7334 24.2932 17.2934 24.7466 16.7334 24.7466Z" fill="white"/>
<path d="M25.3334 15.8132H2.66675V17.8132H25.3334V15.8132Z" fill="white"/>
</svg>
