<svg width="64" height="64" viewBox="0 0 64 64" fill="none" xmlns="http://www.w3.org/2000/svg">
<path d="M43.173 5.33334H20.8263C11.1197 5.33334 5.33301 11.12 5.33301 20.8267V43.1467C5.33301 52.88 11.1197 58.6667 20.8263 58.6667H43.1463C52.853 58.6667 58.6397 52.88 58.6397 43.1733V20.8267C58.6663 11.12 52.8797 5.33334 43.173 5.33334Z" fill="#F6726E"/>
<path d="M18.3467 50.4C17.2533 50.4 16.3467 49.4933 16.3467 48.4V42.88C16.3467 41.7867 17.2533 40.88 18.3467 40.88C19.44 40.88 20.3467 41.7867 20.3467 42.88V48.4C20.3467 49.52 19.44 50.4 18.3467 50.4Z" fill="white"/>
<path d="M32 50.4C30.9067 50.4 30 49.4933 30 48.4V37.3333C30 36.24 30.9067 35.3333 32 35.3333C33.0933 35.3333 34 36.24 34 37.3333V48.4C34 49.52 33.0933 50.4 32 50.4Z" fill="white"/>
<path d="M45.6533 50.4C44.56 50.4 43.6533 49.4934 43.6533 48.4V31.8134C43.6533 30.72 44.56 29.8134 45.6533 29.8134C46.7467 29.8134 47.6533 30.72 47.6533 31.8134V48.4C47.6533 49.52 46.7733 50.4 45.6533 50.4Z" fill="white"/>
<path d="M47.653 15.52C47.653 15.3867 47.5996 15.2267 47.573 15.0933C47.5463 14.9867 47.5196 14.8533 47.493 14.7467C47.4396 14.64 47.3596 14.56 47.3063 14.4533C47.2263 14.3467 47.1463 14.2133 47.0396 14.1333C47.013 14.1067 47.013 14.08 46.9863 14.08C46.9063 14.0267 46.8263 14 46.7463 13.9467C46.6396 13.8667 46.5063 13.7867 46.373 13.7333C46.2396 13.68 46.1063 13.68 45.973 13.6533C45.8663 13.6267 45.7863 13.6 45.6796 13.6H37.8663C36.773 13.6 35.8663 14.5067 35.8663 15.6C35.8663 16.6933 36.773 17.6 37.8663 17.6H41.1996C34.853 24.2667 26.853 28.96 17.8663 31.2267C16.7996 31.4933 16.133 32.5867 16.3996 33.6533C16.613 34.56 17.4396 35.1733 18.3463 35.1733C18.5063 35.1733 18.6663 35.1467 18.8263 35.12C28.3463 32.7467 36.853 27.8133 43.653 20.8267V23.4133C43.653 24.5067 44.5596 25.4133 45.653 25.4133C46.7463 25.4133 47.653 24.5067 47.653 23.4133V15.6C47.653 15.5733 47.653 15.5467 47.653 15.52Z" fill="white"/>
</svg>
