<svg width="32" height="32" viewBox="0 0 32 32" fill="none" xmlns="http://www.w3.org/2000/svg">
<path d="M23.9734 14.3867V19.72C23.9734 20.0667 23.9601 20.4 23.9201 20.72C23.6134 24.32 21.4934 26.1066 17.5868 26.1066H17.0534C16.7201 26.1066 16.4001 26.2667 16.2001 26.5333L14.6001 28.6667C13.8934 29.6133 12.7467 29.6133 12.0401 28.6667L10.4401 26.5333C10.2667 26.3067 9.88008 26.1066 9.58675 26.1066H9.05343C4.80009 26.1066 2.66675 25.0533 2.66675 19.72V14.3867C2.66675 10.48 4.46676 8.36001 8.05343 8.05334C8.37343 8.01334 8.70676 8 9.05343 8H17.5868C21.8401 8 23.9734 10.1333 23.9734 14.3867Z" fill="#F1404B"/>
<path d="M13.3199 18.6667C12.5732 18.6667 11.9866 18.0667 11.9866 17.3333C11.9866 16.6 12.5866 16 13.3199 16C14.0532 16 14.6532 16.6 14.6532 17.3333C14.6532 18.0667 14.0666 18.6667 13.3199 18.6667Z" fill="white"/>
<path d="M17.9867 18.6667C17.24 18.6667 16.6533 18.0667 16.6533 17.3333C16.6533 16.6 17.2533 16 17.9867 16C18.72 16 19.32 16.6 19.32 17.3333C19.32 18.0667 18.72 18.6667 17.9867 18.6667Z" fill="white"/>
<path d="M8.66659 18.6667C7.91992 18.6667 7.33325 18.0667 7.33325 17.3333C7.33325 16.6 7.93325 16 8.66659 16C9.39992 16 9.99992 16.6 9.99992 17.3333C9.99992 18.0667 9.39992 18.6667 8.66659 18.6667Z" fill="white"/>
<path d="M29.3066 9.05343V14.3868C29.3066 18.3068 27.5065 20.4134 23.9199 20.7201C23.9599 20.4001 23.9732 20.0668 23.9732 19.7201V14.3868C23.9732 10.1334 21.8399 8.00008 17.5865 8.00008H9.05322C8.70656 8.00008 8.37322 8.01343 8.05322 8.05343C8.35989 4.46676 10.4799 2.66675 14.3866 2.66675H22.9199C27.1732 2.66675 29.3066 4.80009 29.3066 9.05343Z" fill="#FA998C"/>
</svg>
