<svg width="64" height="64" viewBox="0 0 64 64" fill="none" xmlns="http://www.w3.org/2000/svg">
<path d="M56.2133 22.8801V41.12C56.2133 44.1067 54.6133 46.8802 52.0267 48.4002L36.1867 57.5468C33.6 59.0401 30.4 59.0401 27.7867 57.5468L11.9467 48.4002C9.36001 46.9068 7.76001 44.1334 7.76001 41.12V22.8801C7.76001 19.8935 9.36001 17.12 11.9467 15.6L27.7867 6.45337C30.3733 4.96004 33.5733 4.96004 36.1867 6.45337L52.0267 15.6C54.6133 17.12 56.2133 19.8668 56.2133 22.8801Z" fill="#FA998C"/>
<path d="M32.0001 32C35.4316 32 38.2134 29.2181 38.2134 25.7866C38.2134 22.3551 35.4316 19.5734 32.0001 19.5734C28.5685 19.5734 25.7867 22.3551 25.7867 25.7866C25.7867 29.2181 28.5685 32 32.0001 32Z" fill="white"/>
<path d="M39.1467 44.4266C41.3067 44.4266 42.56 42.0267 41.36 40.2401C39.5467 37.5467 36.0267 35.7334 32 35.7334C27.9734 35.7334 24.4534 37.5467 22.64 40.2401C21.44 42.0267 22.6934 44.4266 24.8534 44.4266H39.1467Z" fill="white"/>
</svg>
