<svg width="32" height="32" viewBox="0 0 32 32" fill="none" xmlns="http://www.w3.org/2000/svg">
<path d="M27.9999 8.00008V18.0001C27.9999 18.5524 27.5522 19.0001 26.9999 19.0001H6.33325C5.78097 19.0001 5.33325 18.5524 5.33325 18.0001V8.00008C5.33325 5.05341 7.71992 2.66675 10.6666 2.66675H22.6666C25.6133 2.66675 27.9999 5.05341 27.9999 8.00008Z" fill="#F1404B"/>
<path d="M10.6666 17H9.33325C8.78659 17 8.33325 16.5467 8.33325 16C8.33325 15.4533 8.78659 15 9.33325 15H10.6666C11.2133 15 11.6666 15.4533 11.6666 16C11.6666 16.5467 11.2133 17 10.6666 17Z" fill="white"/>
<path d="M10.6666 13.6667H9.33325C8.78659 13.6667 8.33325 13.2134 8.33325 12.6667C8.33325 12.1201 8.78659 11.6667 9.33325 11.6667H10.6666C11.2133 11.6667 11.6666 12.1201 11.6666 12.6667C11.6666 13.2134 11.2133 13.6667 10.6666 13.6667Z" fill="white"/>
<path d="M10.6666 10.3333H9.33325C8.78659 10.3333 8.33325 9.87992 8.33325 9.33325C8.33325 8.78659 8.78659 8.33325 9.33325 8.33325H10.6666C11.2133 8.33325 11.6666 8.78659 11.6666 9.33325C11.6666 9.87992 11.2133 10.3333 10.6666 10.3333Z" fill="white"/>
<path d="M6.33325 21C5.78097 21 5.33325 21.4477 5.33325 22V24C5.33325 26.9467 7.71992 29.3333 10.6666 29.3333H22.6666C25.6133 29.3333 27.9999 26.9467 27.9999 24V22C27.9999 21.4477 27.5522 21 26.9999 21H6.33325ZM23.6132 25.9467C23.3599 26.1867 23.0133 26.3333 22.6666 26.3333C22.3199 26.3333 21.9733 26.1867 21.7199 25.9467C21.4799 25.6933 21.3333 25.3467 21.3333 25C21.3333 24.6533 21.4799 24.3067 21.7199 24.0533C22.2133 23.56 23.1066 23.56 23.6132 24.0533C23.8533 24.3067 23.9999 24.6533 23.9999 25C23.9999 25.3467 23.8533 25.6933 23.6132 25.9467Z" fill="#FA998C"/>
</svg>
