<svg width="32" height="32" viewBox="0 0 32 32" fill="none" xmlns="http://www.w3.org/2000/svg">
<path d="M21.5866 2.66675H10.4266C5.57326 2.66675 2.67993 5.56008 2.67993 10.4134V21.5734C2.67993 26.4267 5.57326 29.3201 10.4266 29.3201H21.5866C26.4399 29.3201 29.3333 26.4267 29.3333 21.5734V10.4134C29.3333 5.56008 26.4399 2.66675 21.5866 2.66675Z" fill="#F1404B"/>
<path d="M15.3334 10.7866V22.9999C15.3334 23.4799 14.8534 23.7999 14.4134 23.6132C12.8001 22.9199 10.6934 22.2799 9.22673 22.0933L8.97339 22.0666C8.16006 21.9599 7.49341 21.1999 7.49341 20.3733V10.1066C7.49341 9.09324 8.32008 8.33325 9.33341 8.41325C11.0001 8.54658 13.4668 9.3466 15.0134 10.2266C15.2134 10.3199 15.3334 10.5466 15.3334 10.7866Z" fill="white"/>
<path d="M24.5068 10.2666V20.3599C24.5068 21.1866 23.8401 21.9466 23.0268 22.0533L22.7467 22.0799C21.2934 22.2799 19.2001 22.9066 17.5868 23.5866C17.1468 23.7733 16.6667 23.4533 16.6667 22.9733V10.7732C16.6667 10.5332 16.7867 10.3066 17.0001 10.1866C18.5467 9.31994 20.9601 8.54657 22.6001 8.3999H22.6534C23.6801 8.41324 24.5068 9.23993 24.5068 10.2666Z" fill="white"/>
</svg>
