<svg width="48" height="48" viewBox="0 0 48 48" fill="none" xmlns="http://www.w3.org/2000/svg">
<path d="M35.4999 14.0999C35.0199 14.0199 34.5199 14 33.9999 14H13.9999C13.4399 14 12.8999 14.04 12.3799 14.12C12.6599 13.56 13.0599 13.04 13.5399 12.56L20.0399 6.04C22.7799 3.32 27.2199 3.32 29.9599 6.04L33.4599 9.57992C34.7399 10.8399 35.4199 12.4399 35.4999 14.0999Z" fill="#FA998C"/>
<path d="M10 30C5.58 30 2 33.58 2 38C2 39.5 2.42 40.92 3.16 42.12C4.54 44.44 7.08 46 10 46C12.92 46 15.46 44.44 16.84 42.12C17.58 40.92 18 39.5 18 38C18 33.58 14.42 30 10 30ZM12.98 39.46H11.5V41.02C11.5 41.84 10.82 42.52 10 42.52C9.18 42.52 8.5 41.84 8.5 41.02V39.46H7.02C6.2 39.46 5.52 38.78 5.52 37.96C5.52 37.14 6.2 36.46 7.02 36.46H8.5V35.04C8.5 34.22 9.18 33.54 10 33.54C10.82 33.54 11.5 34.22 11.5 35.04V36.46H12.98C13.8 36.46 14.48 37.14 14.48 37.96C14.48 38.78 13.82 39.46 12.98 39.46Z" fill="#FA998C"/>
<path d="M44 24V34C44 40 40 44 34 44H15.26C15.88 43.48 16.42 42.84 16.84 42.12C17.58 40.92 18 39.5 18 38C18 33.58 14.42 30 10 30C7.6 30 5.46 31.06 4 32.72V24C4 18.56 7.28 14.76 12.38 14.12C12.9 14.04 13.44 14 14 14H34C34.52 14 35.02 14.02 35.5 14.1C40.66 14.7 44 18.52 44 24Z" fill="#F6726E"/>
<path d="M44 25H38C35.8 25 34 26.8 34 29C34 31.2 35.8 33 38 33H44" fill="#FA998C"/>
</svg>
