<svg width="48" height="48" viewBox="0 0 48 48" fill="none" xmlns="http://www.w3.org/2000/svg">
<path d="M40.0805 13.64L28.5605 5.58C25.4205 3.38 20.6005 3.5 17.5805 5.84L7.56047 13.66C5.56047 15.22 3.98047 18.42 3.98047 20.94V34.74C3.98047 39.84 8.12047 44 13.2205 44H34.7805C39.8805 44 44.0205 39.86 44.0205 34.76V21.2C44.0205 18.5 42.2805 15.18 40.0805 13.64Z" fill="#F6726E"/>
<path d="M30.0831 24.6V28.8917C30.0831 31.4583 28.6165 32.5583 26.4165 32.5583H19.0915C18.7165 32.5583 18.3581 32.525 18.0248 32.45C17.8165 32.4167 17.6165 32.3584 17.4331 32.2917C16.1831 31.825 15.4248 30.7417 15.4248 28.8917V24.6C15.4248 22.0333 16.8915 20.9333 19.0915 20.9333H26.4165C28.2831 20.9333 29.6248 21.725 29.9831 23.5333C30.0415 23.8667 30.0831 24.2083 30.0831 24.6Z" fill="white"/>
<path d="M32.5837 27.1V31.3917C32.5837 33.9583 31.1171 35.0583 28.9171 35.0583H21.5921C20.9754 35.0583 20.4171 34.975 19.9337 34.7917C18.9421 34.425 18.2671 33.6667 18.0254 32.45C18.3587 32.525 18.7171 32.5583 19.0921 32.5583H26.4171C28.6171 32.5583 30.0837 31.4583 30.0837 28.8917V24.6C30.0837 24.2083 30.0504 23.8583 29.9837 23.5333C31.5671 23.8667 32.5837 24.9833 32.5837 27.1Z" fill="#FA998C"/>
<path d="M22.7498 28.95C23.9648 28.95 24.9498 27.965 24.9498 26.75C24.9498 25.535 23.9648 24.55 22.7498 24.55C21.5348 24.55 20.5498 25.535 20.5498 26.75C20.5498 27.965 21.5348 28.95 22.7498 28.95Z" fill="#F6726E"/>
<path d="M17.9834 24.875C17.6417 24.875 17.3584 25.1583 17.3584 25.5V28C17.3584 28.3417 17.6417 28.625 17.9834 28.625C18.3251 28.625 18.6084 28.3417 18.6084 28V25.5C18.6084 25.1583 18.3334 24.875 17.9834 24.875Z" fill="#F6726E"/>
<path d="M27.5088 24.875C27.1671 24.875 26.8838 25.1583 26.8838 25.5V28C26.8838 28.3417 27.1671 28.625 27.5088 28.625C27.8505 28.625 28.1338 28.3417 28.1338 28V25.5C28.1338 25.1583 27.8588 24.875 27.5088 24.875Z" fill="#F6726E"/>
</svg>
