<svg width="25" height="25" viewBox="0 0 25 25" fill="none" xmlns="http://www.w3.org/2000/svg">
<path d="M15.3646 23.6979H10.6771V16.1458H9.68749C9.08332 16.1458 8.59375 15.6563 8.59375 15.0521V13.0729C8.59375 12.4687 9.08332 11.9792 9.68749 11.9792H10.6771V9.375C10.6771 7.21875 12.4271 5.46875 14.5833 5.46875H17.3958C18 5.46875 18.4896 5.95832 18.4896 6.56249V9.06251C18.4896 9.66668 18 10.1562 17.3958 10.1562H15.3646V11.9792H17.3229C17.6563 11.9792 17.9583 12.125 18.1667 12.375C18.375 12.625 18.4583 12.9583 18.3958 13.2812L18 15.2604C17.8958 15.7708 17.4479 16.1354 16.9271 16.1354H15.3646V23.6979ZM12.2396 22.1354H13.8021V14.5833H16.5521L16.7604 13.5417H13.8125V9.68749C13.8125 9.08332 14.3021 8.59375 14.9062 8.59375H16.9375V7.03125H14.5833C13.2917 7.03125 12.2396 8.08333 12.2396 9.375V13.5417H10.1563V14.5833H12.2396V22.1354Z" fill="white"/>
<path d="M15.625 23.698H9.37504C3.71879 23.698 1.30212 21.2813 1.30212 15.625V9.37504C1.30212 3.71879 3.71879 1.30212 9.37504 1.30212H15.625C21.2813 1.30212 23.698 3.71879 23.698 9.37504V15.625C23.698 21.2813 21.2813 23.698 15.625 23.698ZM9.37504 2.86462C4.57296 2.86462 2.86462 4.57296 2.86462 9.37504V15.625C2.86462 20.4271 4.57296 22.1355 9.37504 22.1355H15.625C20.4271 22.1355 22.1355 20.4271 22.1355 15.625V9.37504C22.1355 4.57296 20.4271 2.86462 15.625 2.86462H9.37504Z" fill="white"/>
</svg>
