<svg width="48" height="48" viewBox="0 0 48 48" fill="none" xmlns="http://www.w3.org/2000/svg">
<path opacity="0.5" d="M20.22 8C20.06 8.6 20 9.26 20 10V16H10V12C10 9.8 11.8 8 14 8H20.22Z" fill="#F6726E"/>
<path d="M20 38V16H10C6 16 4 18 4 22V38C4 42 6 44 10 44H26C22 44 20 42 20 38ZM13.5 34C13.5 34.82 12.82 35.5 12 35.5C11.18 35.5 10.5 34.82 10.5 34V26C10.5 25.18 11.18 24.5 12 24.5C12.82 24.5 13.5 25.18 13.5 26V34Z" fill="#FA998C"/>
<path d="M28 44H26C22 44 20 42 20 38V10C20 6 22 4 26 4H38C42 4 44 6 44 10V38C44 42 42 44 38 44H36" fill="#F6726E"/>
<path d="M36 36V44H28V36C28 34.9 28.9 34 30 34H34C35.1 34 36 34.9 36 36Z" fill="white"/>
<path d="M28 27.5C27.18 27.5 26.5 26.82 26.5 26V16C26.5 15.18 27.18 14.5 28 14.5C28.82 14.5 29.5 15.18 29.5 16V26C29.5 26.82 28.82 27.5 28 27.5Z" fill="white"/>
<path d="M36 27.5C35.18 27.5 34.5 26.82 34.5 26V16C34.5 15.18 35.18 14.5 36 14.5C36.82 14.5 37.5 15.18 37.5 16V26C37.5 26.82 36.82 27.5 36 27.5Z" fill="white"/>
</svg>
