<svg width="22" height="22" viewBox="0 0 22 22" fill="none" xmlns="http://www.w3.org/2000/svg">
<g clip-path="url(#clip0_601_2682)">
<path d="M17.8746 6.55377C17.7732 6.48514 17.6392 6.48861 17.5417 6.56271C17.4429 6.6375 17.2826 6.70181 17.1004 6.75455C17.5993 6.17211 17.6096 5.78273 17.6038 5.69107C17.5971 5.58714 17.5343 5.49507 17.4401 5.4507C17.3455 5.40662 17.2348 5.41706 17.1506 5.47818C16.552 5.91316 15.956 6.00791 15.5977 6.01849C15.0417 5.48961 14.3207 5.19971 13.5541 5.19971C11.906 5.19971 10.5652 6.55825 10.5652 8.22805C10.5652 8.36324 10.5742 8.49816 10.5917 8.63195C7.77826 8.58407 5.49475 5.89098 5.47118 5.86266C5.41146 5.7911 5.32079 5.75216 5.22703 5.7611C5.13412 5.7692 5.05083 5.82221 5.00423 5.90299C4.21113 7.27898 4.69563 8.49312 5.1821 9.22052C5.13187 9.19066 5.09072 9.16318 5.06256 9.1424C4.97662 9.0785 4.86194 9.06789 4.76582 9.1152C4.66955 9.16264 4.60802 9.25973 4.60622 9.367C4.58473 10.6865 5.20133 11.4585 5.80043 11.896C5.73557 11.905 5.67473 11.9359 5.62909 11.9856C5.56046 12.0601 5.53632 12.1654 5.5659 12.2624C5.98136 13.6223 6.9889 14.104 7.65423 14.2745C6.30837 15.29 4.35775 14.9586 4.33612 14.9545C4.20678 14.9318 4.07733 15 4.02418 15.1208C3.97116 15.2415 4.00744 15.3829 4.11236 15.4629C5.54692 16.5577 7.26264 16.8003 8.50185 16.8003C9.43898 16.8003 10.1035 16.6615 10.1674 16.6477C16.4186 15.1662 16.6168 9.45456 16.6039 8.4812C17.7766 7.38939 17.9611 6.97032 17.9898 6.86609C18.0222 6.74813 17.9759 6.62257 17.8746 6.55377ZM16.121 8.1495C16.0573 8.20809 16.0237 8.29264 16.0295 8.37913C16.0305 8.39447 16.1262 9.94262 15.4363 11.6677C14.5146 13.9725 12.6975 15.4609 10.0412 16.0904C10.0128 16.0964 7.55554 16.6053 5.39848 15.5794C6.32064 15.5407 7.59771 15.281 8.4963 14.2722C8.57136 14.188 8.58922 14.058 8.54303 13.9552C8.49685 13.8526 8.39431 13.7772 8.28187 13.7772C8.28133 13.7772 8.28075 13.7772 8.27993 13.7772C8.20446 13.7772 6.90353 13.7674 6.2802 12.511C6.53228 12.5219 6.83364 12.507 7.07651 12.3951C7.1884 12.3435 7.25451 12.2283 7.24071 12.106C7.2269 11.9836 7.13623 11.8851 7.01567 11.8597C6.94578 11.8449 5.43933 11.5087 5.20707 9.87199C5.43851 9.9684 5.72701 10.0431 6.01398 10.0001C6.12421 9.98363 6.21447 9.90439 6.24569 9.79739C6.27681 9.69054 6.24277 9.57509 6.15863 9.50184C6.09347 9.44523 4.67313 8.18187 5.32353 6.54945C6.09347 7.3515 8.28923 9.34857 10.9518 9.19594C11.0367 9.19105 11.1152 9.14836 11.1656 9.07973C11.216 9.0111 11.2332 8.92363 11.2124 8.84107C11.1621 8.64103 11.1366 8.43483 11.1366 8.22808C11.1366 6.87331 12.221 5.77116 13.554 5.77116C14.206 5.77116 14.8174 6.03134 15.2759 6.50387C15.3285 6.55814 15.4005 6.58923 15.4761 6.59066C15.7402 6.59317 16.175 6.56471 16.6664 6.38194C16.5199 6.55352 16.315 6.75442 16.0284 6.97946C15.9294 7.0573 15.893 7.19096 15.9388 7.30829C15.9849 7.4259 16.1044 7.50025 16.2277 7.48895C16.2855 7.48436 16.5655 7.45967 16.8936 7.39311C16.7056 7.593 16.4549 7.84245 16.121 8.1495Z" fill="white"/>
</g>
<rect x="0.55" y="0.55" width="20.9" height="20.9" rx="6.45" stroke="white" stroke-width="1.1"/>
<defs>
<clipPath id="clip0_601_2682">
<rect width="14" height="14" fill="white" transform="translate(4 4)"/>
</clipPath>
</defs>
</svg>
