<svg width="64" height="64" viewBox="0 0 64 64" fill="none" xmlns="http://www.w3.org/2000/svg">
<path d="M31.9997 58.4C46.7273 58.4 58.6663 46.4609 58.6663 31.7333C58.6663 17.0058 46.7273 5.06668 31.9997 5.06668C17.2721 5.06668 5.33301 17.0058 5.33301 31.7333C5.33301 46.4609 17.2721 58.4 31.9997 58.4Z" fill="#F6726E"/>
<path d="M38.0271 32L34.0004 30.5867V21.5467H34.9604C37.1204 21.5467 38.8804 23.44 38.8804 25.76C38.8804 26.8533 39.7871 27.76 40.8804 27.76C41.9737 27.76 42.8804 26.8533 42.8804 25.76C42.8804 21.2267 39.3337 17.5467 34.9604 17.5467H34.0004V16C34.0004 14.9067 33.0937 14 32.0004 14C30.9071 14 30.0004 14.9067 30.0004 16V17.5467H28.2671C24.3204 17.5467 21.0938 20.88 21.0938 24.96C21.0938 29.7333 23.8671 31.2533 25.9737 32L30.0004 33.4133V42.4267H29.0404C26.8804 42.4267 25.1204 40.5333 25.1204 38.2133C25.1204 37.12 24.2138 36.2133 23.1204 36.2133C22.0271 36.2133 21.1204 37.12 21.1204 38.2133C21.1204 42.7467 24.6671 46.4267 29.0404 46.4267H30.0004V48C30.0004 49.0933 30.9071 50 32.0004 50C33.0937 50 34.0004 49.0933 34.0004 48V46.4533H35.7337C39.6804 46.4533 42.9071 43.12 42.9071 39.04C42.8804 34.24 40.1071 32.72 38.0271 32ZM27.3071 28.24C25.9471 27.76 25.1204 27.3067 25.1204 24.9867C25.1204 23.0933 26.5337 21.5733 28.2937 21.5733H30.0271V29.2L27.3071 28.24ZM35.7337 42.4533H34.0004V34.8267L36.6938 35.76C38.0537 36.24 38.8804 36.6933 38.8804 39.0133C38.8804 40.9067 37.4671 42.4533 35.7337 42.4533Z" fill="white"/>
</svg>
