<svg width="32" height="32" viewBox="0 0 32 32" fill="none" xmlns="http://www.w3.org/2000/svg">
<path d="M29.3334 25.3333V29.3333H2.66675V25.3333C2.66675 24.6 3.26675 24 4.00008 24H28.0001C28.7334 24 29.3334 24.6 29.3334 25.3333Z" fill="#F1404B"/>
<path opacity="0.6" d="M10.6666 14.6667H5.33325V24.0001H10.6666V14.6667Z" fill="#FA998C"/>
<path opacity="0.4" d="M16.0001 14.6667H10.6667V24.0001H16.0001V14.6667Z" fill="#FDC2B3"/>
<path opacity="0.6" d="M21.3333 14.6667H16V24.0001H21.3333V14.6667Z" fill="#FA998C"/>
<path opacity="0.4" d="M26.6666 14.6667H21.3333V24.0001H26.6666V14.6667Z" fill="#FDC2B3"/>
<path d="M30.6666 30.3333H1.33325C0.786585 30.3333 0.333252 29.8799 0.333252 29.3333C0.333252 28.7866 0.786585 28.3333 1.33325 28.3333H30.6666C31.2133 28.3333 31.6666 28.7866 31.6666 29.3333C31.6666 29.8799 31.2133 30.3333 30.6666 30.3333Z" fill="#F1404B"/>
<path d="M28.4934 7.66659L16.4934 2.86662C16.2267 2.75995 15.7734 2.75995 15.5068 2.86662L3.50675 7.66659C3.04009 7.85326 2.66675 8.39991 2.66675 8.90658V13.3333C2.66675 14.0666 3.26675 14.6666 4.00008 14.6666H28.0001C28.7334 14.6666 29.3334 14.0666 29.3334 13.3333V8.90658C29.3334 8.39991 28.9601 7.85326 28.4934 7.66659ZM16.0001 11.3333C14.8934 11.3333 14.0001 10.4399 14.0001 9.33326C14.0001 8.22659 14.8934 7.33326 16.0001 7.33326C17.1067 7.33326 18.0001 8.22659 18.0001 9.33326C18.0001 10.4399 17.1067 11.3333 16.0001 11.3333Z" fill="#F1404B"/>
</svg>
