<svg width="8" height="14" viewBox="0 0 8 14" fill="none" xmlns="http://www.w3.org/2000/svg">
<path d="M7.69476 7.707C7.88223 7.51947 7.98755 7.26516 7.98755 7C7.98755 6.73483 7.88223 6.48053 7.69476 6.293L1.69476 0.292997C1.50616 0.110839 1.25356 0.0100451 0.991362 0.0123234C0.729165 0.0146017 0.478353 0.119771 0.292944 0.30518C0.107536 0.490587 0.0023675 0.741401 8.91685e-05 1.0036C-0.00218916 1.26579 0.0986052 1.5184 0.280763 1.707L5.57376 7L0.280763 12.293C0.0986052 12.4816 -0.00218916 12.7342 8.91685e-05 12.9964C0.0023675 13.2586 0.107536 13.5094 0.292944 13.6948C0.478353 13.8802 0.729165 13.9854 0.991362 13.9877C1.25356 13.9899 1.50616 13.8892 1.69476 13.707L7.69476 7.707Z" fill="white"/>
</svg>
