<svg width="32" height="32" viewBox="0 0 32 32" fill="none" xmlns="http://www.w3.org/2000/svg">
<path d="M29.3334 11.9999V19.9999C29.3334 24.6666 26.6667 26.6666 22.6667 26.6666H11.2668C11.7334 25.8799 12.0001 24.9733 12.0001 23.9999C12.0001 21.0533 9.61341 18.6666 6.66675 18.6666C5.06675 18.6666 3.64008 19.3732 2.66675 20.4799V11.9999C2.66675 7.33325 5.33341 5.33325 9.33342 5.33325H22.6667C26.6667 5.33325 29.3334 7.33325 29.3334 11.9999Z" fill="#F1404B"/>
<path d="M16.0001 19.3334C17.841 19.3334 19.3334 17.841 19.3334 16.0001C19.3334 14.1591 17.841 12.6667 16.0001 12.6667C14.1591 12.6667 12.6667 14.1591 12.6667 16.0001C12.6667 17.841 14.1591 19.3334 16.0001 19.3334Z" fill="white"/>
<path d="M24.6667 19.6666C24.1201 19.6666 23.6667 19.2133 23.6667 18.6666V13.3333C23.6667 12.7866 24.1201 12.3333 24.6667 12.3333C25.2134 12.3333 25.6667 12.7866 25.6667 13.3333V18.6666C25.6667 19.2133 25.2134 19.6666 24.6667 19.6666Z" fill="white"/>
<path d="M6.66659 18.6667C3.71992 18.6667 1.33325 21.0534 1.33325 24.0001C1.33325 25.0001 1.61323 25.9467 2.10657 26.7467C3.02657 28.2934 4.71992 29.3334 6.66659 29.3334C8.61325 29.3334 10.3066 28.2934 11.2266 26.7467C11.7199 25.9467 11.9999 25.0001 11.9999 24.0001C11.9999 21.0534 9.61325 18.6667 6.66659 18.6667ZM9.29325 23.5601L6.45325 26.1868C6.26658 26.3601 6.01323 26.4535 5.77323 26.4535C5.5199 26.4535 5.26657 26.3601 5.06657 26.1601L3.74658 24.8401C3.35992 24.4534 3.35992 23.8134 3.74658 23.4268C4.13325 23.0401 4.77325 23.0401 5.15991 23.4268L5.79993 24.0667L7.93327 22.0934C8.33327 21.7201 8.97327 21.7467 9.3466 22.1467C9.71993 22.5467 9.69325 23.1867 9.29325 23.5601Z" fill="#FA998C"/>
</svg>
