<svg width="64" height="64" viewBox="0 0 64 64" fill="none" xmlns="http://www.w3.org/2000/svg">
<path d="M51.4667 21.12V34.8534C51.4667 43.0667 46.7733 46.5866 39.7333 46.5866H16.2933C15.0933 46.5866 13.9467 46.4801 12.88 46.2401C12.2133 46.1334 11.5733 45.9467 10.9867 45.7334C6.98667 44.2401 4.56 40.7734 4.56 34.8534V21.12C4.56 12.9066 9.25331 9.38672 16.2933 9.38672H39.7333C45.7067 9.38672 50 11.92 51.1467 17.7067C51.3333 18.7734 51.4667 19.8666 51.4667 21.12Z" fill="#F6726E"/>
<path d="M59.4666 29.1199V42.8533C59.4666 51.0666 54.7733 54.5865 47.7333 54.5865H24.2933C22.3199 54.5865 20.5333 54.32 18.9866 53.7334C15.8133 52.56 13.6533 50.1334 12.8799 46.24C13.9466 46.48 15.0933 46.5865 16.2933 46.5865H39.7333C46.7733 46.5865 51.4666 43.0666 51.4666 34.8533V21.1199C51.4666 19.8666 51.36 18.7467 51.1466 17.7067C56.2133 18.7733 59.4666 22.3466 59.4666 29.1199Z" fill="#FA998C"/>
<path d="M28 35.04C31.8881 35.04 35.04 31.8881 35.04 28C35.04 24.1119 31.8881 20.96 28 20.96C24.1119 20.96 20.96 24.1119 20.96 28C20.96 31.8881 24.1119 35.04 28 35.04Z" fill="white"/>
<path d="M12.7466 22C11.6533 22 10.7466 22.9067 10.7466 24V32C10.7466 33.0933 11.6533 34 12.7466 34C13.84 34 14.7466 33.0933 14.7466 32V24C14.7466 22.9067 13.8666 22 12.7466 22Z" fill="white"/>
<path d="M43.2267 22C42.1334 22 41.2267 22.9067 41.2267 24V32C41.2267 33.0933 42.1334 34 43.2267 34C44.32 34 45.2267 33.0933 45.2267 32V24C45.2267 22.9067 44.3467 22 43.2267 22Z" fill="white"/>
</svg>
