<svg width="32" height="32" viewBox="0 0 32 32" fill="none" xmlns="http://www.w3.org/2000/svg">
<path d="M16.0001 7.06659V28.4399C15.7734 28.4399 15.5334 28.3999 15.3467 28.2933L15.2934 28.2666C12.7334 26.8666 8.26675 25.3999 5.37341 25.0133L4.98675 24.9599C3.70675 24.7999 2.66675 23.5999 2.66675 22.3199V6.21326C2.66675 4.62659 3.96008 3.42659 5.54675 3.55993C8.34675 3.78659 12.5867 5.19993 14.9601 6.67993L15.2934 6.87993C15.4934 6.99993 15.7467 7.06659 16.0001 7.06659Z" fill="#F1404B"/>
<path d="M29.3333 6.22679V22.3201C29.3333 23.6001 28.2933 24.8001 27.0133 24.9601L26.5733 25.0135C23.6667 25.4001 19.1867 26.8801 16.6267 28.2935C16.4533 28.4001 16.24 28.4401 16 28.4401V7.06679C16.2533 7.06679 16.5067 7.00012 16.7067 6.88012L16.9333 6.73345C19.3067 5.24012 23.56 3.81345 26.36 3.57345H26.44C28.0267 3.44012 29.3333 4.62679 29.3333 6.22679Z" fill="#FA998C"/>
<path d="M10.3333 12.3201H7.33325C6.78659 12.3201 6.33325 11.8667 6.33325 11.3201C6.33325 10.7734 6.78659 10.3201 7.33325 10.3201H10.3333C10.8799 10.3201 11.3333 10.7734 11.3333 11.3201C11.3333 11.8667 10.8799 12.3201 10.3333 12.3201Z" fill="white"/>
<path d="M11.3333 16.3201H7.33325C6.78659 16.3201 6.33325 15.8667 6.33325 15.3201C6.33325 14.7734 6.78659 14.3201 7.33325 14.3201H11.3333C11.8799 14.3201 12.3333 14.7734 12.3333 15.3201C12.3333 15.8667 11.8799 16.3201 11.3333 16.3201Z" fill="white"/>
</svg>
