<svg width="32" height="32" viewBox="0 0 32 32" fill="none" xmlns="http://www.w3.org/2000/svg">
<path d="M29.3334 28.3333H2.66675C2.12008 28.3333 1.66675 28.7866 1.66675 29.3333C1.66675 29.8799 2.12008 30.3333 2.66675 30.3333H29.3334C29.8801 30.3333 30.3334 29.8799 30.3334 29.3333C30.3334 28.7866 29.8801 28.3333 29.3334 28.3333Z" fill="#F1404B"/>
<path d="M22.6667 2.66675H9.33333C5.33333 2.66675 4 5.05341 4 8.00008V29.3334H28V8.00008C28 5.05341 26.6667 2.66675 22.6667 2.66675Z" fill="#F1404B"/>
<path d="M13.3333 23H9.33325C8.78659 23 8.33325 22.5467 8.33325 22C8.33325 21.4533 8.78659 21 9.33325 21H13.3333C13.8799 21 14.3333 21.4533 14.3333 22C14.3333 22.5467 13.8799 23 13.3333 23Z" fill="#FDC2B3"/>
<path d="M22.6667 23H18.6667C18.1201 23 17.6667 22.5467 17.6667 22C17.6667 21.4533 18.1201 21 18.6667 21H22.6667C23.2134 21 23.6667 21.4533 23.6667 22C23.6667 22.5467 23.2134 23 22.6667 23Z" fill="#FDC2B3"/>
<path d="M13.3333 17H9.33325C8.78659 17 8.33325 16.5467 8.33325 16C8.33325 15.4533 8.78659 15 9.33325 15H13.3333C13.8799 15 14.3333 15.4533 14.3333 16C14.3333 16.5467 13.8799 17 13.3333 17Z" fill="#FDC2B3"/>
<path d="M22.6667 17H18.6667C18.1201 17 17.6667 16.5467 17.6667 16C17.6667 15.4533 18.1201 15 18.6667 15H22.6667C23.2134 15 23.6667 15.4533 23.6667 16C23.6667 16.5467 23.2134 17 22.6667 17Z" fill="#FDC2B3"/>
<path d="M13.3333 11H9.33325C8.78659 11 8.33325 10.5467 8.33325 10C8.33325 9.45333 8.78659 9 9.33325 9H13.3333C13.8799 9 14.3333 9.45333 14.3333 10C14.3333 10.5467 13.8799 11 13.3333 11Z" fill="#FDC2B3"/>
<path d="M22.6667 11H18.6667C18.1201 11 17.6667 10.5467 17.6667 10C17.6667 9.45333 18.1201 9 18.6667 9H22.6667C23.2134 9 23.6667 9.45333 23.6667 10C23.6667 10.5467 23.2134 11 22.6667 11Z" fill="white"/>
</svg>
