<svg width="32" height="32" viewBox="0 0 32 32" fill="none" xmlns="http://www.w3.org/2000/svg">
<path d="M28 9.33342V22.6667C28 26.6667 26 29.3334 21.3333 29.3334H10.6667C6 29.3334 4 26.6667 4 22.6667V9.33342C4 5.33341 6 2.66675 10.6667 2.66675H21.3333C26 2.66675 28 5.33341 28 9.33342Z" fill="#F1404B"/>
<path d="M24.6666 12.3333H21.9999C19.9733 12.3333 18.3333 10.6933 18.3333 8.66667V6C18.3333 5.45333 18.7866 5 19.3333 5C19.8799 5 20.3333 5.45333 20.3333 6V8.66667C20.3333 9.58667 21.0799 10.3333 21.9999 10.3333H24.6666C25.2133 10.3333 25.6666 10.7867 25.6666 11.3333C25.6666 11.88 25.2133 12.3333 24.6666 12.3333Z" fill="white"/>
<path d="M16.0001 18.3333H10.6667C10.1201 18.3333 9.66675 17.8799 9.66675 17.3333C9.66675 16.7866 10.1201 16.3333 10.6667 16.3333H16.0001C16.5467 16.3333 17.0001 16.7866 17.0001 17.3333C17.0001 17.8799 16.5467 18.3333 16.0001 18.3333Z" fill="white"/>
<path d="M21.3334 23.6667H10.6667C10.1201 23.6667 9.66675 23.2134 9.66675 22.6667C9.66675 22.1201 10.1201 21.6667 10.6667 21.6667H21.3334C21.8801 21.6667 22.3334 22.1201 22.3334 22.6667C22.3334 23.2134 21.8801 23.6667 21.3334 23.6667Z" fill="white"/>
</svg>
