<svg width="20" height="20" viewBox="0 0 20 20" fill="none" xmlns="http://www.w3.org/2000/svg">
<path d="M13.9584 6.45829H6.04169C5.70002 6.45829 5.41669 6.17496 5.41669 5.83329V4.16663C5.41669 2.03329 6.40835 1.04163 8.54169 1.04163H11.4584C13.5917 1.04163 14.5834 2.03329 14.5834 4.16663V5.83329C14.5834 6.17496 14.3 6.45829 13.9584 6.45829ZM6.66669 5.20829H13.3334V4.16663C13.3334 2.74996 12.875 2.29163 11.4584 2.29163H8.54169C7.12502 2.29163 6.66669 2.74996 6.66669 4.16663V5.20829Z" fill="white"/>
<path d="M10.8334 18.9583H9.16669C7.15002 18.9583 6.04169 17.85 6.04169 15.8333V12.5C6.04169 12.1583 6.32502 11.875 6.66669 11.875H13.3334C13.675 11.875 13.9584 12.1583 13.9584 12.5V15.8333C13.9584 17.85 12.85 18.9583 10.8334 18.9583ZM7.29169 13.125V15.8333C7.29169 17.15 7.85002 17.7083 9.16669 17.7083H10.8334C12.15 17.7083 12.7084 17.15 12.7084 15.8333V13.125H7.29169Z" fill="white"/>
<path d="M15 15.625H13.3333C12.9917 15.625 12.7083 15.3417 12.7083 15V13.125H7.29167V15C7.29167 15.3417 7.00833 15.625 6.66667 15.625H5C2.98333 15.625 1.875 14.5167 1.875 12.5V8.33337C1.875 6.31671 2.98333 5.20837 5 5.20837H15C17.0167 5.20837 18.125 6.31671 18.125 8.33337V12.5C18.125 14.5167 17.0167 15.625 15 15.625ZM13.9583 14.375H15C16.3167 14.375 16.875 13.8167 16.875 12.5V8.33337C16.875 7.01671 16.3167 6.45837 15 6.45837H5C3.68333 6.45837 3.125 7.01671 3.125 8.33337V12.5C3.125 13.8167 3.68333 14.375 5 14.375H6.04167V12.5C6.04167 12.1584 6.325 11.875 6.66667 11.875H13.3333C13.675 11.875 13.9583 12.1584 13.9583 12.5V14.375Z" fill="white"/>
<path d="M14.1666 13.125H5.83331C5.49165 13.125 5.20831 12.8417 5.20831 12.5C5.20831 12.1583 5.49165 11.875 5.83331 11.875H14.1666C14.5083 11.875 14.7916 12.1583 14.7916 12.5C14.7916 12.8417 14.5083 13.125 14.1666 13.125Z" fill="white"/>
<path d="M8.33331 9.79163H5.83331C5.49165 9.79163 5.20831 9.50829 5.20831 9.16663C5.20831 8.82496 5.49165 8.54163 5.83331 8.54163H8.33331C8.67498 8.54163 8.95831 8.82496 8.95831 9.16663C8.95831 9.50829 8.67498 9.79163 8.33331 9.79163Z" fill="white"/>
</svg>
