<svg width="64" height="64" viewBox="0 0 64 64" fill="none" xmlns="http://www.w3.org/2000/svg">
<path d="M56.24 18.6133C53.9734 16.1066 50.1867 14.8533 44.6933 14.8533H44.0533V14.7466C44.0533 10.2666 44.0533 4.71997 34.0267 4.71997H29.9733C19.9467 4.71997 19.9467 10.2933 19.9467 14.7466V14.88H19.3067C13.7867 14.88 10.0267 16.1333 7.76002 18.64C5.12002 21.5733 5.20002 25.52 5.46668 28.2133L5.49335 28.4L5.76002 31.2C5.78669 31.2266 5.84002 31.28 5.89335 31.3066C6.77335 31.8933 7.68002 32.48 8.64002 33.0133C9.01335 33.2533 9.41335 33.4666 9.81335 33.68C14.3734 36.1866 19.3867 37.8666 24.48 38.6933C24.72 41.2 25.8133 44.1333 31.6533 44.1333C37.4933 44.1333 38.64 41.2266 38.8267 38.64C44.2667 37.76 49.52 35.8666 54.2667 33.0933C54.4267 33.0133 54.5334 32.9333 54.6667 32.8533C55.8934 32.16 57.04 31.4133 58.16 30.5866C58.2133 30.56 58.2667 30.5066 58.2934 30.4533L58.4 29.4933L58.5334 28.24C58.56 28.08 58.56 27.9466 58.5867 27.76C58.8 25.0666 58.7467 21.3866 56.24 18.6133ZM34.9067 36.88C34.9067 39.7066 34.9067 40.1333 31.6267 40.1333C28.3467 40.1333 28.3467 39.6266 28.3467 36.9066V33.5466H34.9067V36.88ZM23.76 14.8533V14.7466C23.76 10.2133 23.76 8.5333 29.9733 8.5333H34.0267C40.24 8.5333 40.24 10.24 40.24 14.7466V14.88H23.76V14.8533Z" fill="#F6726E"/>
<path d="M54.6667 32.8C54.5333 32.88 54.4 32.96 54.2667 33.04C49.52 35.8134 44.2667 37.68 38.8267 38.5867C38.6133 41.1467 37.4933 44.08 31.6533 44.08C25.8133 44.08 24.6933 41.1734 24.48 38.64C19.3867 37.84 14.3733 36.16 9.81334 33.6267C9.41334 33.4134 9.01334 33.2 8.64001 32.96C7.68001 32.4267 6.77334 31.84 5.89334 31.2534C5.84001 31.2267 5.78668 31.1734 5.76001 31.1467L7.38668 48.5067C7.94668 53.8134 10.1333 59.28 21.8667 59.28H42.1867C53.92 59.28 56.1067 53.8134 56.6667 48.48L58.3467 30.4C58.32 30.4534 58.2667 30.5067 58.2133 30.5334C57.0667 31.36 55.8933 32.1334 54.6667 32.8Z" fill="#FA998C"/>
</svg>
