<svg width="22" height="22" viewBox="0 0 22 22" fill="none" xmlns="http://www.w3.org/2000/svg">
<g clip-path="url(#clip0_601_2677)">
<path d="M15.8125 21.3125H6.1875C3.1625 21.3125 0.6875 18.8375 0.6875 15.8125V6.1875C0.6875 3.1625 3.1625 0.6875 6.1875 0.6875H15.8125C18.8375 0.6875 21.3125 3.1625 21.3125 6.1875V15.8125C21.3125 18.8375 18.8375 21.3125 15.8125 21.3125Z" stroke="white" stroke-width="1.3" stroke-miterlimit="10" stroke-linecap="round" stroke-linejoin="round"/>
<path d="M7.5625 8.9375H4.8125V17.1875H7.5625V8.9375Z" stroke="white" stroke-width="1.3" stroke-miterlimit="10" stroke-linecap="round" stroke-linejoin="round"/>
<path d="M14.0938 8.9375C13.475 8.9375 12.8562 9.14375 12.375 9.4875V8.9375H9.625V17.1875H11H12.375V12.7188C12.375 12.1687 12.8562 11.6875 13.4062 11.6875C13.9563 11.6875 14.4375 12.1687 14.4375 12.7188V17.1875H17.1875V12.0312C17.1875 10.3125 15.8125 8.9375 14.0938 8.9375Z" stroke="white" stroke-width="1.3" stroke-miterlimit="10" stroke-linecap="round" stroke-linejoin="round"/>
<path d="M6.1875 6.875C6.94689 6.875 7.5625 6.25939 7.5625 5.5C7.5625 4.74061 6.94689 4.125 6.1875 4.125C5.42811 4.125 4.8125 4.74061 4.8125 5.5C4.8125 6.25939 5.42811 6.875 6.1875 6.875Z" stroke="white" stroke-width="1.3" stroke-miterlimit="10" stroke-linecap="round" stroke-linejoin="round"/>
</g>
<defs>
<clipPath id="clip0_601_2677">
<rect width="22" height="22" fill="white"/>
</clipPath>
</defs>
</svg>
