<svg width="64" height="64" viewBox="0 0 64 64" fill="none" xmlns="http://www.w3.org/2000/svg">
<path d="M56 5.33334V37.6C56 42.6667 53.3334 45.3333 48.2667 45.3333H15.7333C10.6667 45.3333 8 42.6667 8 37.6V5.33334H56Z" fill="#F6726E"/>
<path d="M58.6663 7.33334H5.33301C4.23967 7.33334 3.33301 6.42668 3.33301 5.33334C3.33301 4.24001 4.23967 3.33334 5.33301 3.33334H58.6663C59.7597 3.33334 60.6663 4.24001 60.6663 5.33334C60.6663 6.42668 59.7597 7.33334 58.6663 7.33334Z" fill="#FA998C"/>
<path d="M44.4531 59.5733C44.1064 60.2667 43.3864 60.6667 42.6664 60.6667C42.3731 60.6667 42.0531 60.5867 41.7864 60.4534L31.9997 55.5733L22.213 60.4534C21.9464 60.5867 21.6264 60.6667 21.3331 60.6667C20.6131 60.6667 19.893 60.2667 19.5464 59.5733C19.0397 58.56 19.4398 57.36 20.4531 56.88L29.9997 52.1067V45.3333H33.9997V52.1067L43.5464 56.88C44.5597 57.36 44.9598 58.56 44.4531 59.5733Z" fill="#FA998C"/>
<path d="M20.0001 31.3333C19.4401 31.3333 18.8535 31.0933 18.4535 30.6133C17.7335 29.76 17.8668 28.5067 18.7201 27.7867L27.1202 20.7733C27.8935 20.1333 28.8801 19.8666 29.8134 20.0266C30.7734 20.1866 31.6002 20.7733 32.1068 21.6266L34.9068 26.2933L42.7201 19.7867C43.5734 19.0667 44.8268 19.1999 45.5468 20.0533C46.2668 20.9066 46.1335 22.1599 45.2802 22.8799L36.8801 29.8933C36.1068 30.5333 35.1201 30.7999 34.1868 30.6399C33.2268 30.4799 32.4001 29.8933 31.8934 29.04L29.0935 24.3733L21.2802 30.8799C20.9068 31.1733 20.4535 31.3333 20.0001 31.3333Z" fill="white"/>
</svg>
