<svg width="48" height="48" viewBox="0 0 48 48" fill="none" xmlns="http://www.w3.org/2000/svg">
<path d="M44 16V32.38C44 39.66 39.66 44 32.38 44H15.62C8.34 44 4 39.66 4 32.38V16.02L44 16Z" fill="#F6726E"/>
<path d="M44 15.62V16L4 16.02V15.62C4 8.34 8.34 4 15.62 4H32.38C39.66 4 44 8.34 44 15.62Z" fill="#FA998C"/>
<path d="M17.368 26.434L16.419 30.165C16.4103 30.191 16.4146 30.217 16.432 30.243C16.458 30.2603 16.484 30.269 16.51 30.269H18.252C18.278 30.269 18.2996 30.2603 18.317 30.243C18.343 30.217 18.3516 30.191 18.343 30.165L17.394 26.434C17.394 26.4253 17.3896 26.421 17.381 26.421C17.3723 26.421 17.368 26.4253 17.368 26.434ZM13.897 34C13.715 34 13.5676 33.9263 13.455 33.779C13.351 33.6317 13.3293 33.4713 13.39 33.298L16.016 25.212C16.0853 25.004 16.2066 24.835 16.38 24.705C16.562 24.575 16.7613 24.51 16.978 24.51H17.836C18.0613 24.51 18.265 24.575 18.447 24.705C18.629 24.835 18.7503 25.004 18.811 25.212L21.424 33.298C21.4846 33.4713 21.4586 33.6317 21.346 33.779C21.242 33.9263 21.099 34 20.917 34H20.046C19.8293 34 19.6343 33.935 19.461 33.805C19.2876 33.6663 19.175 33.493 19.123 33.285L18.811 32.05C18.8023 31.9807 18.759 31.946 18.681 31.946H16.081C16.0116 31.946 15.9683 31.9807 15.951 32.05L15.639 33.285C15.587 33.493 15.4743 33.6663 15.301 33.805C15.1276 33.935 14.9326 34 14.716 34H13.897Z" fill="white"/>
<path d="M24.7918 26.252V29.086C24.7918 29.1467 24.8308 29.1857 24.9088 29.203C25.2035 29.2377 25.4375 29.255 25.6108 29.255C26.2348 29.255 26.7158 29.112 27.0538 28.826C27.4005 28.5313 27.5738 28.124 27.5738 27.604C27.5738 26.5727 26.9195 26.057 25.6108 26.057C25.3941 26.057 25.1558 26.0787 24.8958 26.122C24.8265 26.1393 24.7918 26.1827 24.7918 26.252ZM23.3618 34C23.1625 34 22.9891 33.9263 22.8418 33.779C22.6945 33.6317 22.6208 33.4583 22.6208 33.259V25.316C22.6208 25.108 22.6901 24.9217 22.8288 24.757C22.9675 24.5923 23.1408 24.5013 23.3488 24.484C24.0855 24.4147 24.7961 24.38 25.4808 24.38C28.2541 24.38 29.6408 25.4113 29.6408 27.474C29.6408 28.592 29.3158 29.4413 28.6658 30.022C28.0245 30.594 27.0798 30.88 25.8318 30.88C25.5025 30.88 25.1948 30.867 24.9088 30.841C24.8308 30.841 24.7918 30.8757 24.7918 30.945V33.259C24.7918 33.4583 24.7181 33.6317 24.5708 33.779C24.4235 33.9263 24.2501 34 24.0508 34H23.3618Z" fill="white"/>
<path d="M31.8846 34C31.6853 34 31.5119 33.9263 31.3646 33.779C31.2259 33.6317 31.1566 33.4583 31.1566 33.259V25.251C31.1566 25.0517 31.2259 24.8783 31.3646 24.731C31.5119 24.5837 31.6853 24.51 31.8846 24.51H32.8466C33.0459 24.51 33.2149 24.5837 33.3536 24.731C33.5009 24.8783 33.5746 25.0517 33.5746 25.251V33.259C33.5746 33.4583 33.5009 33.6317 33.3536 33.779C33.2149 33.9263 33.0459 34 32.8466 34H31.8846Z" fill="white"/>
</svg>
