<svg width="48" height="48" viewBox="0 0 48 48" fill="none" xmlns="http://www.w3.org/2000/svg">
<path d="M42 14V34C42 40 39 44 32 44H18C20.42 42.18 22 39.26 22 36C22 30.48 17.52 26 12 26C9.74 26 7.66 26.74 6 28V14C6 8 9 4 16 4H32C39 4 42 8 42 14Z" fill="#F6726E"/>
<path fill-rule="evenodd" clip-rule="evenodd" d="M29 7.5C29.8284 7.5 30.5 8.17157 30.5 9V13C30.5 14.3716 31.6284 15.5 33 15.5H37C37.8284 15.5 38.5 16.1716 38.5 17C38.5 17.8284 37.8284 18.5 37 18.5H33C29.9716 18.5 27.5 16.0284 27.5 13V9C27.5 8.17157 28.1716 7.5 29 7.5Z" fill="white"/>
<path d="M12 26C6.48 26 2 30.48 2 36C2 41.52 6.48 46 12 46C17.52 46 22 41.52 22 36C22 30.48 17.52 26 12 26ZM10.32 38.54C10.82 39.04 10.82 39.86 10.32 40.38C10.06 40.64 9.74002 40.76 9.40002 40.76C9.06002 40.76 8.73998 40.64 8.47998 40.38L5.02002 36.92C4.52002 36.42 4.52002 35.6 5.02002 35.08L8.47998 31.62C8.97998 31.12 9.80001 31.12 10.32 31.62C10.82 32.12 10.82 32.94 10.32 33.46L7.78003 36L10.32 38.54ZM18.96 36.92L15.5 40.38C15.24 40.64 14.92 40.76 14.58 40.76C14.24 40.76 13.92 40.64 13.66 40.38C13.16 39.88 13.16 39.06 13.66 38.54L16.2 36L13.66 33.46C13.16 32.96 13.16 32.14 13.66 31.62C14.16 31.12 14.98 31.12 15.5 31.62L18.96 35.08C19.46 35.6 19.46 36.4 18.96 36.92Z" fill="#FA998C"/>
</svg>
