<svg width="48" height="48" viewBox="0 0 48 48" fill="none" xmlns="http://www.w3.org/2000/svg">
<path d="M42 4V28.2C42 32 40 34 36.2 34H11.8C7.99999 34 6 32 6 28.2V4H42Z" fill="#F6726E"/>
<path d="M44 5.5H4C3.18 5.5 2.5 4.82 2.5 4C2.5 3.18 3.18 2.5 4 2.5H44C44.82 2.5 45.5 3.18 45.5 4C45.5 4.82 44.82 5.5 44 5.5Z" fill="#FA998C"/>
<path d="M33.3401 44.68C33.0801 45.2 32.54 45.5 32 45.5C31.78 45.5 31.5401 45.44 31.3401 45.34L24 41.68L16.66 45.34C16.46 45.44 16.22 45.5 16 45.5C15.46 45.5 14.92 45.2 14.66 44.68C14.28 43.92 14.5801 43.02 15.3401 42.66L22.5 39.08V34H25.5V39.08L32.66 42.66C33.42 43.02 33.7201 43.92 33.3401 44.68Z" fill="#FA998C"/>
<path d="M14.9999 23.5C14.5799 23.5 14.1399 23.32 13.8399 22.96C13.2999 22.32 13.3998 21.38 14.0398 20.84L20.3399 15.58C20.9199 15.1 21.6598 14.9 22.3598 15.02C23.0798 15.14 23.6999 15.5799 24.0799 16.2199L26.1798 19.7199L32.0398 14.84C32.6798 14.3 33.6198 14.4 34.1598 15.04C34.6998 15.68 34.5999 16.6199 33.9599 17.1599L27.6598 22.42C27.0798 22.9 26.3399 23.1 25.6399 22.98C24.9199 22.86 24.2998 22.42 23.9198 21.78L21.8199 18.28L15.9599 23.1599C15.6799 23.3799 15.3399 23.5 14.9999 23.5Z" fill="white"/>
</svg>
