<svg id="Layer_1" data-name="Layer 1" xmlns="http://www.w3.org/2000/svg" viewBox="0 0 29.94 22.46"><g id="Page-1"><g id="Login"><g id="Group"><g id="hide"><path id="Path" d="M15,2.5C7.29,2.5.44,10.48.15,10.83a.61.61,0,0,0,0,.8,31.28,31.28,0,0,0,6.32,5.46l3.91-3.91a4.89,4.89,0,0,1-.4-1.95,5,5,0,0,1,5-5,5.06,5.06,0,0,1,2,.39l3.21-3.21A15.17,15.17,0,0,0,15,2.5Z" transform="translate(0 0)" style="fill:#c3c3c3"/><path id="Shape" d="M29.83,10.87a22.88,22.88,0,0,0-7.26-6.36L26,1.06a.63.63,0,0,0,0-.88.63.63,0,0,0-.88,0L3.93,21.39a.61.61,0,0,0,0,.88.6.6,0,0,0,.88,0l3.91-3.91A14.38,14.38,0,0,0,15,20c7.69,0,14.54-8,14.82-8.33A.62.62,0,0,0,29.83,10.87ZM15,16.22a4.91,4.91,0,0,1-3-1.07l7-7a5,5,0,0,1-3.93,8Z" transform="translate(0 0)" style="fill:#c3c3c3"/></g></g></g></g></svg>